<mxfile host="app.diagrams.net" modified="2023-07-25T13:51:04.713Z" agent="Mozilla/5.0 (Windows NT 10.0; Win64; x64) AppleWebKit/537.36 (KHTML, like Gecko) Chrome/115.0.0.0 Safari/537.36" etag="iaK5H6kOKaDLgZkJQgHH" version="21.6.5" type="device" pages="7">
  <diagram name="1.0-exercicio-filmes" id="I-BGdNGA7U1FFxbziQIE">
    <mxGraphModel dx="1028" dy="574" grid="1" gridSize="10" guides="1" tooltips="1" connect="1" arrows="1" fold="1" page="1" pageScale="1" pageWidth="827" pageHeight="1169" math="0" shadow="0">
      <root>
        <mxCell id="0" />
        <mxCell id="1" parent="0" />
        <mxCell id="YZphu3kOSSdstlYhfyMW-1" value="Filme" style="rounded=0;whiteSpace=wrap;html=1;" vertex="1" parent="1">
          <mxGeometry x="354" y="110" width="120" height="60" as="geometry" />
        </mxCell>
        <mxCell id="YZphu3kOSSdstlYhfyMW-2" value="Gênero" style="rounded=0;whiteSpace=wrap;html=1;" vertex="1" parent="1">
          <mxGeometry x="354" y="350" width="120" height="60" as="geometry" />
        </mxCell>
        <mxCell id="YZphu3kOSSdstlYhfyMW-7" style="edgeStyle=orthogonalEdgeStyle;rounded=0;orthogonalLoop=1;jettySize=auto;html=1;exitX=0.5;exitY=0;exitDx=0;exitDy=0;entryX=0.5;entryY=1;entryDx=0;entryDy=0;endArrow=none;endFill=0;" edge="1" parent="1" source="YZphu3kOSSdstlYhfyMW-3" target="YZphu3kOSSdstlYhfyMW-1">
          <mxGeometry relative="1" as="geometry" />
        </mxCell>
        <mxCell id="YZphu3kOSSdstlYhfyMW-8" style="edgeStyle=orthogonalEdgeStyle;rounded=0;orthogonalLoop=1;jettySize=auto;html=1;exitX=0.5;exitY=1;exitDx=0;exitDy=0;entryX=0.5;entryY=0;entryDx=0;entryDy=0;endArrow=none;endFill=0;" edge="1" parent="1" source="YZphu3kOSSdstlYhfyMW-3" target="YZphu3kOSSdstlYhfyMW-2">
          <mxGeometry relative="1" as="geometry" />
        </mxCell>
        <mxCell id="YZphu3kOSSdstlYhfyMW-3" value="possui" style="rhombus;whiteSpace=wrap;html=1;" vertex="1" parent="1">
          <mxGeometry x="374" y="220" width="80" height="80" as="geometry" />
        </mxCell>
        <mxCell id="YZphu3kOSSdstlYhfyMW-18" value="1" style="text;html=1;align=center;verticalAlign=middle;resizable=0;points=[];autosize=1;strokeColor=none;fillColor=none;" vertex="1" parent="1">
          <mxGeometry x="405" y="318" width="30" height="30" as="geometry" />
        </mxCell>
        <mxCell id="YZphu3kOSSdstlYhfyMW-19" value="N" style="text;html=1;align=center;verticalAlign=middle;resizable=0;points=[];autosize=1;strokeColor=none;fillColor=none;" vertex="1" parent="1">
          <mxGeometry x="405" y="168" width="30" height="30" as="geometry" />
        </mxCell>
      </root>
    </mxGraphModel>
  </diagram>
  <diagram id="CU2UuW71HOpha8_t07lp" name="1.1-exercicio-pessoas">
    <mxGraphModel dx="1028" dy="517" grid="1" gridSize="10" guides="1" tooltips="1" connect="1" arrows="1" fold="1" page="1" pageScale="1" pageWidth="827" pageHeight="1169" math="0" shadow="0">
      <root>
        <mxCell id="0" />
        <mxCell id="1" parent="0" />
        <mxCell id="9IQwOJpV2tIMCUv4cz78-7" style="edgeStyle=orthogonalEdgeStyle;rounded=0;orthogonalLoop=1;jettySize=auto;html=1;entryX=0.5;entryY=1;entryDx=0;entryDy=0;endArrow=none;endFill=0;" edge="1" parent="1" source="9IQwOJpV2tIMCUv4cz78-1">
          <mxGeometry relative="1" as="geometry">
            <mxPoint x="414" y="180" as="targetPoint" />
          </mxGeometry>
        </mxCell>
        <mxCell id="9IQwOJpV2tIMCUv4cz78-1" value="Pessoa" style="rounded=0;whiteSpace=wrap;html=1;" vertex="1" parent="1">
          <mxGeometry x="354" y="230" width="120" height="60" as="geometry" />
        </mxCell>
        <mxCell id="9IQwOJpV2tIMCUv4cz78-5" style="edgeStyle=orthogonalEdgeStyle;rounded=0;orthogonalLoop=1;jettySize=auto;html=1;exitX=0;exitY=0.5;exitDx=0;exitDy=0;entryX=1;entryY=0.5;entryDx=0;entryDy=0;endArrow=none;endFill=0;" edge="1" parent="1" source="9IQwOJpV2tIMCUv4cz78-2" target="9IQwOJpV2tIMCUv4cz78-1">
          <mxGeometry relative="1" as="geometry" />
        </mxCell>
        <mxCell id="9IQwOJpV2tIMCUv4cz78-2" value="Emails" style="rounded=0;whiteSpace=wrap;html=1;" vertex="1" parent="1">
          <mxGeometry x="680" y="230" width="120" height="60" as="geometry" />
        </mxCell>
        <mxCell id="9IQwOJpV2tIMCUv4cz78-4" style="edgeStyle=orthogonalEdgeStyle;rounded=0;orthogonalLoop=1;jettySize=auto;html=1;endArrow=none;endFill=0;" edge="1" parent="1" source="9IQwOJpV2tIMCUv4cz78-3" target="9IQwOJpV2tIMCUv4cz78-1">
          <mxGeometry relative="1" as="geometry" />
        </mxCell>
        <mxCell id="9IQwOJpV2tIMCUv4cz78-3" value="Telefones" style="rounded=0;whiteSpace=wrap;html=1;" vertex="1" parent="1">
          <mxGeometry x="30" y="230" width="120" height="60" as="geometry" />
        </mxCell>
        <mxCell id="9IQwOJpV2tIMCUv4cz78-8" value="N" style="text;html=1;align=center;verticalAlign=middle;resizable=0;points=[];autosize=1;strokeColor=none;fillColor=none;" vertex="1" parent="1">
          <mxGeometry x="140" y="238" width="30" height="30" as="geometry" />
        </mxCell>
        <mxCell id="9IQwOJpV2tIMCUv4cz78-9" value="N" style="text;html=1;align=center;verticalAlign=middle;resizable=0;points=[];autosize=1;strokeColor=none;fillColor=none;" vertex="1" parent="1">
          <mxGeometry x="660" y="238" width="30" height="30" as="geometry" />
        </mxCell>
        <mxCell id="9IQwOJpV2tIMCUv4cz78-10" value="1" style="text;html=1;align=center;verticalAlign=middle;resizable=0;points=[];autosize=1;strokeColor=none;fillColor=none;" vertex="1" parent="1">
          <mxGeometry x="474" y="228" width="30" height="30" as="geometry" />
        </mxCell>
        <mxCell id="Zz_gHZl45tqb8q4Uxrso-1" value="possui" style="rhombus;whiteSpace=wrap;html=1;" vertex="1" parent="1">
          <mxGeometry x="210" y="220" width="80" height="80" as="geometry" />
        </mxCell>
        <mxCell id="1jNoZATQ0PYchABWmxlN-1" value="possui" style="rhombus;whiteSpace=wrap;html=1;" vertex="1" parent="1">
          <mxGeometry x="540" y="220" width="80" height="80" as="geometry" />
        </mxCell>
        <mxCell id="QV2ovt7Cpgw_d3lgKomS-1" value="CNH" style="ellipse;whiteSpace=wrap;html=1;" vertex="1" parent="1">
          <mxGeometry x="374" y="138" width="80" height="40" as="geometry" />
        </mxCell>
        <mxCell id="O3maNbYY7GkLywRqJN_z-1" value="1" style="text;html=1;align=center;verticalAlign=middle;resizable=0;points=[];autosize=1;strokeColor=none;fillColor=none;" vertex="1" parent="1">
          <mxGeometry x="325" y="228" width="30" height="30" as="geometry" />
        </mxCell>
      </root>
    </mxGraphModel>
  </diagram>
  <diagram id="02MyzW7_RCpUl3PUk8fm" name="1.2-exercicio-locadora">
    <mxGraphModel dx="1209" dy="608" grid="1" gridSize="10" guides="1" tooltips="1" connect="1" arrows="1" fold="1" page="1" pageScale="1" pageWidth="827" pageHeight="1169" math="0" shadow="0">
      <root>
        <mxCell id="0" />
        <mxCell id="1" parent="0" />
        <mxCell id="pgoecBLrP6WC7xK8D5ze-8" style="edgeStyle=orthogonalEdgeStyle;rounded=0;orthogonalLoop=1;jettySize=auto;html=1;endArrow=none;endFill=0;" edge="1" parent="1" source="VdG7JLdGuIOGSLcqiNNR-1" target="VdG7JLdGuIOGSLcqiNNR-2">
          <mxGeometry relative="1" as="geometry" />
        </mxCell>
        <mxCell id="VdG7JLdGuIOGSLcqiNNR-1" value="Empresas" style="rounded=0;whiteSpace=wrap;html=1;" vertex="1" parent="1">
          <mxGeometry x="27" y="240" width="120" height="60" as="geometry" />
        </mxCell>
        <mxCell id="VdG7JLdGuIOGSLcqiNNR-2" value="possui" style="rhombus;whiteSpace=wrap;html=1;" vertex="1" parent="1">
          <mxGeometry x="211" y="230" width="80" height="80" as="geometry" />
        </mxCell>
        <mxCell id="pgoecBLrP6WC7xK8D5ze-12" value="" style="edgeStyle=orthogonalEdgeStyle;rounded=0;orthogonalLoop=1;jettySize=auto;html=1;endArrow=none;endFill=0;" edge="1" parent="1" source="pgoecBLrP6WC7xK8D5ze-1" target="pgoecBLrP6WC7xK8D5ze-7">
          <mxGeometry relative="1" as="geometry" />
        </mxCell>
        <mxCell id="pgoecBLrP6WC7xK8D5ze-1" value="Veículos" style="rounded=0;whiteSpace=wrap;html=1;" vertex="1" parent="1">
          <mxGeometry x="357" y="240" width="120" height="60" as="geometry" />
        </mxCell>
        <mxCell id="pgoecBLrP6WC7xK8D5ze-5" value="Placa" style="ellipse;whiteSpace=wrap;html=1;" vertex="1" parent="1">
          <mxGeometry x="377" y="150" width="80" height="40" as="geometry" />
        </mxCell>
        <mxCell id="pgoecBLrP6WC7xK8D5ze-14" style="edgeStyle=orthogonalEdgeStyle;rounded=0;orthogonalLoop=1;jettySize=auto;html=1;exitX=0.5;exitY=0;exitDx=0;exitDy=0;entryX=0.5;entryY=1;entryDx=0;entryDy=0;endArrow=none;endFill=0;" edge="1" parent="1" source="pgoecBLrP6WC7xK8D5ze-6" target="pgoecBLrP6WC7xK8D5ze-7">
          <mxGeometry relative="1" as="geometry" />
        </mxCell>
        <mxCell id="pgoecBLrP6WC7xK8D5ze-6" value="Cliente" style="rounded=0;whiteSpace=wrap;html=1;" vertex="1" parent="1">
          <mxGeometry x="357" y="420" width="120" height="60" as="geometry" />
        </mxCell>
        <mxCell id="pgoecBLrP6WC7xK8D5ze-7" value="aluga" style="rhombus;whiteSpace=wrap;html=1;" vertex="1" parent="1">
          <mxGeometry x="377" y="320" width="80" height="80" as="geometry" />
        </mxCell>
        <mxCell id="pgoecBLrP6WC7xK8D5ze-10" style="edgeStyle=orthogonalEdgeStyle;rounded=0;orthogonalLoop=1;jettySize=auto;html=1;endArrow=none;endFill=0;" edge="1" parent="1">
          <mxGeometry relative="1" as="geometry">
            <mxPoint x="291" y="269.5" as="sourcePoint" />
            <mxPoint x="357" y="270" as="targetPoint" />
            <Array as="points">
              <mxPoint x="331" y="269.5" />
              <mxPoint x="331" y="269.5" />
            </Array>
          </mxGeometry>
        </mxCell>
        <mxCell id="pgoecBLrP6WC7xK8D5ze-19" style="edgeStyle=orthogonalEdgeStyle;rounded=0;orthogonalLoop=1;jettySize=auto;html=1;entryX=0.5;entryY=0;entryDx=0;entryDy=0;exitX=0.5;exitY=1;exitDx=0;exitDy=0;endArrow=none;endFill=0;" edge="1" parent="1" source="pgoecBLrP6WC7xK8D5ze-5" target="pgoecBLrP6WC7xK8D5ze-1">
          <mxGeometry relative="1" as="geometry">
            <mxPoint x="387" y="190" as="sourcePoint" />
            <mxPoint x="257" y="240" as="targetPoint" />
            <Array as="points">
              <mxPoint x="417" y="200" />
              <mxPoint x="417" y="200" />
            </Array>
          </mxGeometry>
        </mxCell>
        <mxCell id="dbm5YVzPwT5RKsMoLXLE-5" style="edgeStyle=orthogonalEdgeStyle;rounded=0;orthogonalLoop=1;jettySize=auto;html=1;entryX=1;entryY=0.5;entryDx=0;entryDy=0;endArrow=none;endFill=0;" edge="1" parent="1" source="dbm5YVzPwT5RKsMoLXLE-1" target="pgoecBLrP6WC7xK8D5ze-1">
          <mxGeometry relative="1" as="geometry" />
        </mxCell>
        <mxCell id="dbm5YVzPwT5RKsMoLXLE-1" value="possui" style="rhombus;whiteSpace=wrap;html=1;" vertex="1" parent="1">
          <mxGeometry x="537" y="160" width="80" height="80" as="geometry" />
        </mxCell>
        <mxCell id="dbm5YVzPwT5RKsMoLXLE-6" value="" style="edgeStyle=orthogonalEdgeStyle;rounded=0;orthogonalLoop=1;jettySize=auto;html=1;endArrow=none;endFill=0;" edge="1" parent="1" source="dbm5YVzPwT5RKsMoLXLE-3" target="dbm5YVzPwT5RKsMoLXLE-1">
          <mxGeometry relative="1" as="geometry" />
        </mxCell>
        <mxCell id="dbm5YVzPwT5RKsMoLXLE-3" value="Marca" style="rounded=0;whiteSpace=wrap;html=1;" vertex="1" parent="1">
          <mxGeometry x="673" y="170" width="120" height="60" as="geometry" />
        </mxCell>
        <mxCell id="dbm5YVzPwT5RKsMoLXLE-11" style="edgeStyle=orthogonalEdgeStyle;rounded=0;orthogonalLoop=1;jettySize=auto;html=1;exitX=0;exitY=0.5;exitDx=0;exitDy=0;endArrow=none;endFill=0;" edge="1" parent="1" source="dbm5YVzPwT5RKsMoLXLE-7">
          <mxGeometry relative="1" as="geometry">
            <mxPoint x="507" y="270" as="targetPoint" />
          </mxGeometry>
        </mxCell>
        <mxCell id="dbm5YVzPwT5RKsMoLXLE-7" value="possui" style="rhombus;whiteSpace=wrap;html=1;" vertex="1" parent="1">
          <mxGeometry x="537" y="310" width="80" height="80" as="geometry" />
        </mxCell>
        <mxCell id="dbm5YVzPwT5RKsMoLXLE-8" value="" style="edgeStyle=orthogonalEdgeStyle;rounded=0;orthogonalLoop=1;jettySize=auto;html=1;endArrow=none;endFill=0;" edge="1" parent="1" source="dbm5YVzPwT5RKsMoLXLE-9" target="dbm5YVzPwT5RKsMoLXLE-7">
          <mxGeometry relative="1" as="geometry" />
        </mxCell>
        <mxCell id="dbm5YVzPwT5RKsMoLXLE-9" value="Modelo" style="rounded=0;whiteSpace=wrap;html=1;" vertex="1" parent="1">
          <mxGeometry x="673" y="320" width="120" height="60" as="geometry" />
        </mxCell>
        <mxCell id="dbm5YVzPwT5RKsMoLXLE-12" style="edgeStyle=orthogonalEdgeStyle;rounded=0;orthogonalLoop=1;jettySize=auto;html=1;endArrow=none;endFill=0;" edge="1" parent="1" source="dbm5YVzPwT5RKsMoLXLE-13" target="dbm5YVzPwT5RKsMoLXLE-14">
          <mxGeometry relative="1" as="geometry" />
        </mxCell>
        <mxCell id="dbm5YVzPwT5RKsMoLXLE-13" value="Empresas" style="rounded=0;whiteSpace=wrap;html=1;" vertex="1" parent="1">
          <mxGeometry x="34" y="640" width="120" height="60" as="geometry" />
        </mxCell>
        <mxCell id="dbm5YVzPwT5RKsMoLXLE-14" value="possui" style="rhombus;whiteSpace=wrap;html=1;" vertex="1" parent="1">
          <mxGeometry x="218" y="630" width="80" height="80" as="geometry" />
        </mxCell>
        <mxCell id="dbm5YVzPwT5RKsMoLXLE-15" value="" style="edgeStyle=orthogonalEdgeStyle;rounded=0;orthogonalLoop=1;jettySize=auto;html=1;endArrow=none;endFill=0;" edge="1" parent="1" source="dbm5YVzPwT5RKsMoLXLE-16" target="dbm5YVzPwT5RKsMoLXLE-20">
          <mxGeometry relative="1" as="geometry" />
        </mxCell>
        <mxCell id="dbm5YVzPwT5RKsMoLXLE-16" value="Veículos" style="rounded=0;whiteSpace=wrap;html=1;" vertex="1" parent="1">
          <mxGeometry x="364" y="640" width="120" height="60" as="geometry" />
        </mxCell>
        <mxCell id="dbm5YVzPwT5RKsMoLXLE-17" value="Placa" style="ellipse;whiteSpace=wrap;html=1;" vertex="1" parent="1">
          <mxGeometry x="384" y="550" width="80" height="40" as="geometry" />
        </mxCell>
        <mxCell id="dbm5YVzPwT5RKsMoLXLE-18" style="edgeStyle=orthogonalEdgeStyle;rounded=0;orthogonalLoop=1;jettySize=auto;html=1;exitX=0.5;exitY=0;exitDx=0;exitDy=0;entryX=0.5;entryY=1;entryDx=0;entryDy=0;endArrow=none;endFill=0;" edge="1" parent="1" source="dbm5YVzPwT5RKsMoLXLE-19" target="dbm5YVzPwT5RKsMoLXLE-20">
          <mxGeometry relative="1" as="geometry" />
        </mxCell>
        <mxCell id="dbm5YVzPwT5RKsMoLXLE-19" value="Aluguel" style="rounded=0;whiteSpace=wrap;html=1;" vertex="1" parent="1">
          <mxGeometry x="364" y="820" width="120" height="60" as="geometry" />
        </mxCell>
        <mxCell id="dbm5YVzPwT5RKsMoLXLE-20" value="possui" style="rhombus;whiteSpace=wrap;html=1;" vertex="1" parent="1">
          <mxGeometry x="384" y="720" width="80" height="80" as="geometry" />
        </mxCell>
        <mxCell id="dbm5YVzPwT5RKsMoLXLE-21" style="edgeStyle=orthogonalEdgeStyle;rounded=0;orthogonalLoop=1;jettySize=auto;html=1;endArrow=none;endFill=0;" edge="1" parent="1">
          <mxGeometry relative="1" as="geometry">
            <mxPoint x="298" y="669.5" as="sourcePoint" />
            <mxPoint x="364" y="670" as="targetPoint" />
            <Array as="points">
              <mxPoint x="338" y="669.5" />
              <mxPoint x="338" y="669.5" />
            </Array>
          </mxGeometry>
        </mxCell>
        <mxCell id="dbm5YVzPwT5RKsMoLXLE-22" style="edgeStyle=orthogonalEdgeStyle;rounded=0;orthogonalLoop=1;jettySize=auto;html=1;entryX=0.5;entryY=0;entryDx=0;entryDy=0;exitX=0.5;exitY=1;exitDx=0;exitDy=0;endArrow=none;endFill=0;" edge="1" parent="1" source="dbm5YVzPwT5RKsMoLXLE-17" target="dbm5YVzPwT5RKsMoLXLE-16">
          <mxGeometry relative="1" as="geometry">
            <mxPoint x="394" y="590" as="sourcePoint" />
            <mxPoint x="264" y="640" as="targetPoint" />
            <Array as="points">
              <mxPoint x="424" y="600" />
              <mxPoint x="424" y="600" />
            </Array>
          </mxGeometry>
        </mxCell>
        <mxCell id="dbm5YVzPwT5RKsMoLXLE-23" style="edgeStyle=orthogonalEdgeStyle;rounded=0;orthogonalLoop=1;jettySize=auto;html=1;entryX=1;entryY=0.5;entryDx=0;entryDy=0;endArrow=none;endFill=0;" edge="1" parent="1" source="dbm5YVzPwT5RKsMoLXLE-24" target="dbm5YVzPwT5RKsMoLXLE-16">
          <mxGeometry relative="1" as="geometry" />
        </mxCell>
        <mxCell id="dbm5YVzPwT5RKsMoLXLE-24" value="possui" style="rhombus;whiteSpace=wrap;html=1;" vertex="1" parent="1">
          <mxGeometry x="544" y="560" width="80" height="80" as="geometry" />
        </mxCell>
        <mxCell id="dbm5YVzPwT5RKsMoLXLE-25" value="" style="edgeStyle=orthogonalEdgeStyle;rounded=0;orthogonalLoop=1;jettySize=auto;html=1;endArrow=none;endFill=0;" edge="1" parent="1" source="dbm5YVzPwT5RKsMoLXLE-26" target="dbm5YVzPwT5RKsMoLXLE-24">
          <mxGeometry relative="1" as="geometry" />
        </mxCell>
        <mxCell id="dbm5YVzPwT5RKsMoLXLE-26" value="Marca" style="rounded=0;whiteSpace=wrap;html=1;" vertex="1" parent="1">
          <mxGeometry x="680" y="570" width="120" height="60" as="geometry" />
        </mxCell>
        <mxCell id="dbm5YVzPwT5RKsMoLXLE-27" style="edgeStyle=orthogonalEdgeStyle;rounded=0;orthogonalLoop=1;jettySize=auto;html=1;exitX=0;exitY=0.5;exitDx=0;exitDy=0;endArrow=none;endFill=0;" edge="1" parent="1" source="dbm5YVzPwT5RKsMoLXLE-28">
          <mxGeometry relative="1" as="geometry">
            <mxPoint x="514" y="670" as="targetPoint" />
          </mxGeometry>
        </mxCell>
        <mxCell id="dbm5YVzPwT5RKsMoLXLE-28" value="possui" style="rhombus;whiteSpace=wrap;html=1;" vertex="1" parent="1">
          <mxGeometry x="544" y="710" width="80" height="80" as="geometry" />
        </mxCell>
        <mxCell id="dbm5YVzPwT5RKsMoLXLE-29" value="" style="edgeStyle=orthogonalEdgeStyle;rounded=0;orthogonalLoop=1;jettySize=auto;html=1;endArrow=none;endFill=0;" edge="1" parent="1" source="dbm5YVzPwT5RKsMoLXLE-30" target="dbm5YVzPwT5RKsMoLXLE-28">
          <mxGeometry relative="1" as="geometry" />
        </mxCell>
        <mxCell id="dbm5YVzPwT5RKsMoLXLE-30" value="Modelo" style="rounded=0;whiteSpace=wrap;html=1;" vertex="1" parent="1">
          <mxGeometry x="680" y="720" width="120" height="60" as="geometry" />
        </mxCell>
        <mxCell id="dbm5YVzPwT5RKsMoLXLE-31" value="" style="edgeStyle=orthogonalEdgeStyle;rounded=0;orthogonalLoop=1;jettySize=auto;html=1;endArrow=none;endFill=0;" edge="1" parent="1" target="dbm5YVzPwT5RKsMoLXLE-34">
          <mxGeometry relative="1" as="geometry">
            <mxPoint x="424" y="880" as="sourcePoint" />
          </mxGeometry>
        </mxCell>
        <mxCell id="dbm5YVzPwT5RKsMoLXLE-32" style="edgeStyle=orthogonalEdgeStyle;rounded=0;orthogonalLoop=1;jettySize=auto;html=1;exitX=0.5;exitY=0;exitDx=0;exitDy=0;entryX=0.5;entryY=1;entryDx=0;entryDy=0;endArrow=none;endFill=0;" edge="1" parent="1" source="dbm5YVzPwT5RKsMoLXLE-33" target="dbm5YVzPwT5RKsMoLXLE-34">
          <mxGeometry relative="1" as="geometry" />
        </mxCell>
        <mxCell id="dbm5YVzPwT5RKsMoLXLE-37" value="" style="edgeStyle=orthogonalEdgeStyle;rounded=0;orthogonalLoop=1;jettySize=auto;html=1;endArrow=none;endFill=0;" edge="1" parent="1" source="dbm5YVzPwT5RKsMoLXLE-33" target="dbm5YVzPwT5RKsMoLXLE-35">
          <mxGeometry relative="1" as="geometry" />
        </mxCell>
        <mxCell id="dbm5YVzPwT5RKsMoLXLE-38" value="" style="edgeStyle=orthogonalEdgeStyle;rounded=0;orthogonalLoop=1;jettySize=auto;html=1;endArrow=none;endFill=0;" edge="1" parent="1" source="dbm5YVzPwT5RKsMoLXLE-33" target="dbm5YVzPwT5RKsMoLXLE-36">
          <mxGeometry relative="1" as="geometry" />
        </mxCell>
        <mxCell id="dbm5YVzPwT5RKsMoLXLE-33" value="Cliente" style="rounded=0;whiteSpace=wrap;html=1;" vertex="1" parent="1">
          <mxGeometry x="364" y="1000" width="120" height="60" as="geometry" />
        </mxCell>
        <mxCell id="dbm5YVzPwT5RKsMoLXLE-34" value="possui" style="rhombus;whiteSpace=wrap;html=1;" vertex="1" parent="1">
          <mxGeometry x="384" y="900" width="80" height="80" as="geometry" />
        </mxCell>
        <mxCell id="dbm5YVzPwT5RKsMoLXLE-35" value="CPF" style="ellipse;whiteSpace=wrap;html=1;" vertex="1" parent="1">
          <mxGeometry x="537" y="1010" width="80" height="40" as="geometry" />
        </mxCell>
        <mxCell id="dbm5YVzPwT5RKsMoLXLE-36" value="Nome" style="ellipse;whiteSpace=wrap;html=1;" vertex="1" parent="1">
          <mxGeometry x="230" y="1010" width="80" height="40" as="geometry" />
        </mxCell>
        <mxCell id="dbm5YVzPwT5RKsMoLXLE-39" value="N" style="text;html=1;align=center;verticalAlign=middle;resizable=0;points=[];autosize=1;strokeColor=none;fillColor=none;" vertex="1" parent="1">
          <mxGeometry x="325" y="248" width="30" height="30" as="geometry" />
        </mxCell>
        <mxCell id="dbm5YVzPwT5RKsMoLXLE-40" value="1" style="text;html=1;align=center;verticalAlign=middle;resizable=0;points=[];autosize=1;strokeColor=none;fillColor=none;" vertex="1" parent="1">
          <mxGeometry x="140" y="248" width="30" height="30" as="geometry" />
        </mxCell>
        <mxCell id="dbm5YVzPwT5RKsMoLXLE-41" value="1" style="text;html=1;align=center;verticalAlign=middle;resizable=0;points=[];autosize=1;strokeColor=none;fillColor=none;" vertex="1" parent="1">
          <mxGeometry x="645" y="198" width="30" height="30" as="geometry" />
        </mxCell>
        <mxCell id="dbm5YVzPwT5RKsMoLXLE-42" value="1" style="text;html=1;align=center;verticalAlign=middle;resizable=0;points=[];autosize=1;strokeColor=none;fillColor=none;" vertex="1" parent="1">
          <mxGeometry x="464" y="248" width="30" height="30" as="geometry" />
        </mxCell>
        <mxCell id="dbm5YVzPwT5RKsMoLXLE-43" value="1" style="text;html=1;align=center;verticalAlign=middle;resizable=0;points=[];autosize=1;strokeColor=none;fillColor=none;" vertex="1" parent="1">
          <mxGeometry x="643" y="320" width="30" height="30" as="geometry" />
        </mxCell>
        <mxCell id="dbm5YVzPwT5RKsMoLXLE-44" value="1" style="text;html=1;align=center;verticalAlign=middle;resizable=0;points=[];autosize=1;strokeColor=none;fillColor=none;" vertex="1" parent="1">
          <mxGeometry x="385" y="398" width="30" height="30" as="geometry" />
        </mxCell>
        <mxCell id="dbm5YVzPwT5RKsMoLXLE-45" value="N" style="text;html=1;align=center;verticalAlign=middle;resizable=0;points=[];autosize=1;strokeColor=none;fillColor=none;" vertex="1" parent="1">
          <mxGeometry x="385" y="298" width="30" height="30" as="geometry" />
        </mxCell>
        <mxCell id="dbm5YVzPwT5RKsMoLXLE-46" value="N" style="text;html=1;align=center;verticalAlign=middle;resizable=0;points=[];autosize=1;strokeColor=none;fillColor=none;" vertex="1" parent="1">
          <mxGeometry x="332" y="650" width="30" height="30" as="geometry" />
        </mxCell>
        <mxCell id="dbm5YVzPwT5RKsMoLXLE-47" value="1" style="text;html=1;align=center;verticalAlign=middle;resizable=0;points=[];autosize=1;strokeColor=none;fillColor=none;" vertex="1" parent="1">
          <mxGeometry x="147" y="650" width="30" height="30" as="geometry" />
        </mxCell>
        <mxCell id="dbm5YVzPwT5RKsMoLXLE-48" value="1" style="text;html=1;align=center;verticalAlign=middle;resizable=0;points=[];autosize=1;strokeColor=none;fillColor=none;" vertex="1" parent="1">
          <mxGeometry x="652" y="600" width="30" height="30" as="geometry" />
        </mxCell>
        <mxCell id="dbm5YVzPwT5RKsMoLXLE-49" value="1" style="text;html=1;align=center;verticalAlign=middle;resizable=0;points=[];autosize=1;strokeColor=none;fillColor=none;" vertex="1" parent="1">
          <mxGeometry x="650" y="722" width="30" height="30" as="geometry" />
        </mxCell>
        <mxCell id="dbm5YVzPwT5RKsMoLXLE-50" value="N" style="text;html=1;align=center;verticalAlign=middle;resizable=0;points=[];autosize=1;strokeColor=none;fillColor=none;" vertex="1" parent="1">
          <mxGeometry x="392" y="800" width="30" height="30" as="geometry" />
        </mxCell>
        <mxCell id="dbm5YVzPwT5RKsMoLXLE-51" value="1" style="text;html=1;align=center;verticalAlign=middle;resizable=0;points=[];autosize=1;strokeColor=none;fillColor=none;" vertex="1" parent="1">
          <mxGeometry x="392" y="700" width="30" height="30" as="geometry" />
        </mxCell>
        <mxCell id="dbm5YVzPwT5RKsMoLXLE-52" value="1" style="text;html=1;align=center;verticalAlign=middle;resizable=0;points=[];autosize=1;strokeColor=none;fillColor=none;" vertex="1" parent="1">
          <mxGeometry x="385" y="968" width="30" height="30" as="geometry" />
        </mxCell>
        <mxCell id="dbm5YVzPwT5RKsMoLXLE-53" value="N" style="text;html=1;align=center;verticalAlign=middle;resizable=0;points=[];autosize=1;strokeColor=none;fillColor=none;" vertex="1" parent="1">
          <mxGeometry x="392" y="880" width="30" height="30" as="geometry" />
        </mxCell>
        <mxCell id="dbm5YVzPwT5RKsMoLXLE-54" value="1" style="text;html=1;align=center;verticalAlign=middle;resizable=0;points=[];autosize=1;strokeColor=none;fillColor=none;" vertex="1" parent="1">
          <mxGeometry x="485" y="638" width="30" height="30" as="geometry" />
        </mxCell>
      </root>
    </mxGraphModel>
  </diagram>
  <diagram id="2YCTpL5LTWsqLzix2I8e" name="1.3-exercicio-pclinics">
    <mxGraphModel dx="1869" dy="940" grid="1" gridSize="10" guides="1" tooltips="1" connect="1" arrows="1" fold="1" page="1" pageScale="1" pageWidth="827" pageHeight="1169" math="0" shadow="0">
      <root>
        <mxCell id="0" />
        <mxCell id="1" parent="0" />
        <mxCell id="6v6mWYqKibFyAExrrGuZ-11" style="edgeStyle=orthogonalEdgeStyle;rounded=0;orthogonalLoop=1;jettySize=auto;html=1;exitX=1;exitY=0.5;exitDx=0;exitDy=0;entryX=0;entryY=0.5;entryDx=0;entryDy=0;endArrow=none;endFill=0;" edge="1" parent="1" source="G8QMCM7ktY4HzcPHwu0p-2" target="6v6mWYqKibFyAExrrGuZ-3">
          <mxGeometry relative="1" as="geometry" />
        </mxCell>
        <mxCell id="G8QMCM7ktY4HzcPHwu0p-2" value="Clinica" style="rounded=0;whiteSpace=wrap;html=1;" vertex="1" parent="1">
          <mxGeometry y="150" width="120" height="60" as="geometry" />
        </mxCell>
        <mxCell id="6v6mWYqKibFyAExrrGuZ-2" style="edgeStyle=orthogonalEdgeStyle;rounded=0;orthogonalLoop=1;jettySize=auto;html=1;entryX=0.5;entryY=0;entryDx=0;entryDy=0;endArrow=none;endFill=0;" edge="1" parent="1" source="6v6mWYqKibFyAExrrGuZ-1" target="G8QMCM7ktY4HzcPHwu0p-2">
          <mxGeometry relative="1" as="geometry" />
        </mxCell>
        <mxCell id="6v6mWYqKibFyAExrrGuZ-1" value="Endereço" style="ellipse;whiteSpace=wrap;html=1;" vertex="1" parent="1">
          <mxGeometry x="20" y="60" width="80" height="40" as="geometry" />
        </mxCell>
        <mxCell id="6v6mWYqKibFyAExrrGuZ-12" style="edgeStyle=orthogonalEdgeStyle;rounded=0;orthogonalLoop=1;jettySize=auto;html=1;endArrow=none;endFill=0;" edge="1" parent="1" source="6v6mWYqKibFyAExrrGuZ-3" target="6v6mWYqKibFyAExrrGuZ-4">
          <mxGeometry relative="1" as="geometry" />
        </mxCell>
        <mxCell id="6v6mWYqKibFyAExrrGuZ-3" value="cadastra" style="rhombus;whiteSpace=wrap;html=1;" vertex="1" parent="1">
          <mxGeometry x="155" y="140" width="80" height="80" as="geometry" />
        </mxCell>
        <mxCell id="8ZcnrOEr7dViygReLH3v-12" value="" style="edgeStyle=orthogonalEdgeStyle;rounded=0;orthogonalLoop=1;jettySize=auto;html=1;endArrow=none;endFill=0;" edge="1" parent="1" source="6v6mWYqKibFyAExrrGuZ-4" target="8ZcnrOEr7dViygReLH3v-7">
          <mxGeometry relative="1" as="geometry" />
        </mxCell>
        <mxCell id="6v6mWYqKibFyAExrrGuZ-4" value="Veterinario" style="rounded=0;whiteSpace=wrap;html=1;" vertex="1" parent="1">
          <mxGeometry x="270" y="150" width="120" height="60" as="geometry" />
        </mxCell>
        <mxCell id="6v6mWYqKibFyAExrrGuZ-15" style="edgeStyle=orthogonalEdgeStyle;rounded=0;orthogonalLoop=1;jettySize=auto;html=1;entryX=0.5;entryY=1;entryDx=0;entryDy=0;endArrow=none;endFill=0;" edge="1" parent="1" source="6v6mWYqKibFyAExrrGuZ-6" target="6v6mWYqKibFyAExrrGuZ-7">
          <mxGeometry relative="1" as="geometry" />
        </mxCell>
        <mxCell id="6v6mWYqKibFyAExrrGuZ-6" value="Pet" style="rounded=0;whiteSpace=wrap;html=1;" vertex="1" parent="1">
          <mxGeometry x="545" y="360" width="120" height="60" as="geometry" />
        </mxCell>
        <mxCell id="6v6mWYqKibFyAExrrGuZ-7" value="Nome" style="ellipse;whiteSpace=wrap;html=1;" vertex="1" parent="1">
          <mxGeometry x="565" y="270" width="80" height="40" as="geometry" />
        </mxCell>
        <mxCell id="6v6mWYqKibFyAExrrGuZ-16" style="edgeStyle=orthogonalEdgeStyle;rounded=0;orthogonalLoop=1;jettySize=auto;html=1;exitX=0.5;exitY=1;exitDx=0;exitDy=0;entryX=0.5;entryY=0;entryDx=0;entryDy=0;endArrow=none;endFill=0;" edge="1" parent="1" source="6v6mWYqKibFyAExrrGuZ-8" target="6v6mWYqKibFyAExrrGuZ-6">
          <mxGeometry relative="1" as="geometry" />
        </mxCell>
        <mxCell id="6v6mWYqKibFyAExrrGuZ-8" value="Data de nascimento" style="ellipse;whiteSpace=wrap;html=1;" vertex="1" parent="1">
          <mxGeometry x="680" y="270" width="80" height="40" as="geometry" />
        </mxCell>
        <mxCell id="wMdFhBVSBYd1yxWIsnu8-2" style="edgeStyle=orthogonalEdgeStyle;rounded=0;orthogonalLoop=1;jettySize=auto;html=1;entryX=0.5;entryY=1;entryDx=0;entryDy=0;endArrow=none;endFill=0;" edge="1" parent="1" source="wMdFhBVSBYd1yxWIsnu8-1" target="6v6mWYqKibFyAExrrGuZ-6">
          <mxGeometry relative="1" as="geometry">
            <Array as="points">
              <mxPoint x="473" y="440" />
              <mxPoint x="605" y="440" />
            </Array>
          </mxGeometry>
        </mxCell>
        <mxCell id="wMdFhBVSBYd1yxWIsnu8-1" value="possui" style="rhombus;whiteSpace=wrap;html=1;" vertex="1" parent="1">
          <mxGeometry x="430" y="470" width="80" height="80" as="geometry" />
        </mxCell>
        <mxCell id="wMdFhBVSBYd1yxWIsnu8-4" style="edgeStyle=orthogonalEdgeStyle;rounded=0;orthogonalLoop=1;jettySize=auto;html=1;entryX=0.5;entryY=1;entryDx=0;entryDy=0;endArrow=none;endFill=0;" edge="1" parent="1" source="wMdFhBVSBYd1yxWIsnu8-3" target="wMdFhBVSBYd1yxWIsnu8-1">
          <mxGeometry relative="1" as="geometry" />
        </mxCell>
        <mxCell id="wMdFhBVSBYd1yxWIsnu8-3" value="Dono" style="rounded=0;whiteSpace=wrap;html=1;" vertex="1" parent="1">
          <mxGeometry x="410" y="585" width="120" height="60" as="geometry" />
        </mxCell>
        <mxCell id="wMdFhBVSBYd1yxWIsnu8-5" value="N" style="text;html=1;align=center;verticalAlign=middle;resizable=0;points=[];autosize=1;strokeColor=none;fillColor=none;" vertex="1" parent="1">
          <mxGeometry x="240" y="150" width="30" height="30" as="geometry" />
        </mxCell>
        <mxCell id="wMdFhBVSBYd1yxWIsnu8-7" value="N" style="text;html=1;align=center;verticalAlign=middle;resizable=0;points=[];autosize=1;strokeColor=none;fillColor=none;" vertex="1" parent="1">
          <mxGeometry x="440" y="555" width="30" height="30" as="geometry" />
        </mxCell>
        <mxCell id="8ZcnrOEr7dViygReLH3v-5" value="Atendimento" style="rounded=0;whiteSpace=wrap;html=1;" vertex="1" parent="1">
          <mxGeometry x="270" y="360" width="120" height="60" as="geometry" />
        </mxCell>
        <mxCell id="8ZcnrOEr7dViygReLH3v-11" value="" style="edgeStyle=orthogonalEdgeStyle;rounded=0;orthogonalLoop=1;jettySize=auto;html=1;endArrow=none;endFill=0;" edge="1" parent="1" source="8ZcnrOEr7dViygReLH3v-7" target="8ZcnrOEr7dViygReLH3v-5">
          <mxGeometry relative="1" as="geometry" />
        </mxCell>
        <mxCell id="8ZcnrOEr7dViygReLH3v-7" value="faz" style="rhombus;whiteSpace=wrap;html=1;" vertex="1" parent="1">
          <mxGeometry x="290" y="245" width="80" height="80" as="geometry" />
        </mxCell>
        <mxCell id="8ZcnrOEr7dViygReLH3v-9" value="" style="edgeStyle=orthogonalEdgeStyle;rounded=0;orthogonalLoop=1;jettySize=auto;html=1;endArrow=none;endFill=0;" edge="1" parent="1" source="8ZcnrOEr7dViygReLH3v-8" target="8ZcnrOEr7dViygReLH3v-5">
          <mxGeometry relative="1" as="geometry" />
        </mxCell>
        <mxCell id="8ZcnrOEr7dViygReLH3v-10" value="" style="edgeStyle=orthogonalEdgeStyle;rounded=0;orthogonalLoop=1;jettySize=auto;html=1;endArrow=none;endFill=0;" edge="1" parent="1" source="8ZcnrOEr7dViygReLH3v-8" target="6v6mWYqKibFyAExrrGuZ-6">
          <mxGeometry relative="1" as="geometry" />
        </mxCell>
        <mxCell id="8ZcnrOEr7dViygReLH3v-8" value="atende" style="rhombus;whiteSpace=wrap;html=1;" vertex="1" parent="1">
          <mxGeometry x="430" y="350" width="80" height="80" as="geometry" />
        </mxCell>
        <mxCell id="8ZcnrOEr7dViygReLH3v-25" value="" style="edgeStyle=orthogonalEdgeStyle;rounded=0;orthogonalLoop=1;jettySize=auto;html=1;endArrow=none;endFill=0;" edge="1" parent="1" source="8ZcnrOEr7dViygReLH3v-13" target="6v6mWYqKibFyAExrrGuZ-6">
          <mxGeometry relative="1" as="geometry" />
        </mxCell>
        <mxCell id="8ZcnrOEr7dViygReLH3v-13" value="possui" style="rhombus;whiteSpace=wrap;html=1;" vertex="1" parent="1">
          <mxGeometry x="565" y="470" width="80" height="80" as="geometry" />
        </mxCell>
        <mxCell id="8ZcnrOEr7dViygReLH3v-14" style="edgeStyle=orthogonalEdgeStyle;rounded=0;orthogonalLoop=1;jettySize=auto;html=1;entryX=0.5;entryY=1;entryDx=0;entryDy=0;endArrow=none;endFill=0;" edge="1" parent="1" source="8ZcnrOEr7dViygReLH3v-15" target="8ZcnrOEr7dViygReLH3v-13">
          <mxGeometry relative="1" as="geometry" />
        </mxCell>
        <mxCell id="8ZcnrOEr7dViygReLH3v-15" value="TipoPet" style="rounded=0;whiteSpace=wrap;html=1;" vertex="1" parent="1">
          <mxGeometry x="545" y="585" width="120" height="60" as="geometry" />
        </mxCell>
        <mxCell id="8ZcnrOEr7dViygReLH3v-16" value="1" style="text;html=1;align=center;verticalAlign=middle;resizable=0;points=[];autosize=1;strokeColor=none;fillColor=none;" vertex="1" parent="1">
          <mxGeometry x="575" y="555" width="30" height="30" as="geometry" />
        </mxCell>
        <mxCell id="8ZcnrOEr7dViygReLH3v-24" value="" style="edgeStyle=orthogonalEdgeStyle;rounded=0;orthogonalLoop=1;jettySize=auto;html=1;entryX=0.5;entryY=1;entryDx=0;entryDy=0;endArrow=none;endFill=0;" edge="1" parent="1" source="8ZcnrOEr7dViygReLH3v-17" target="6v6mWYqKibFyAExrrGuZ-6">
          <mxGeometry relative="1" as="geometry">
            <mxPoint x="740" y="380" as="targetPoint" />
            <Array as="points">
              <mxPoint x="740" y="440" />
              <mxPoint x="605" y="440" />
            </Array>
          </mxGeometry>
        </mxCell>
        <mxCell id="8ZcnrOEr7dViygReLH3v-17" value="possui" style="rhombus;whiteSpace=wrap;html=1;" vertex="1" parent="1">
          <mxGeometry x="700" y="470" width="80" height="80" as="geometry" />
        </mxCell>
        <mxCell id="8ZcnrOEr7dViygReLH3v-18" style="edgeStyle=orthogonalEdgeStyle;rounded=0;orthogonalLoop=1;jettySize=auto;html=1;entryX=0.5;entryY=1;entryDx=0;entryDy=0;endArrow=none;endFill=0;" edge="1" parent="1" source="8ZcnrOEr7dViygReLH3v-19" target="8ZcnrOEr7dViygReLH3v-17">
          <mxGeometry relative="1" as="geometry" />
        </mxCell>
        <mxCell id="8ZcnrOEr7dViygReLH3v-19" value="Raca" style="rounded=0;whiteSpace=wrap;html=1;" vertex="1" parent="1">
          <mxGeometry x="680" y="585" width="120" height="60" as="geometry" />
        </mxCell>
        <mxCell id="8ZcnrOEr7dViygReLH3v-20" value="1" style="text;html=1;align=center;verticalAlign=middle;resizable=0;points=[];autosize=1;strokeColor=none;fillColor=none;" vertex="1" parent="1">
          <mxGeometry x="710" y="555" width="30" height="30" as="geometry" />
        </mxCell>
        <mxCell id="8ZcnrOEr7dViygReLH3v-26" value="1" style="text;html=1;align=center;verticalAlign=middle;resizable=0;points=[];autosize=1;strokeColor=none;fillColor=none;" vertex="1" parent="1">
          <mxGeometry x="120" y="150" width="30" height="30" as="geometry" />
        </mxCell>
        <mxCell id="8ZcnrOEr7dViygReLH3v-27" value="N" style="text;html=1;align=center;verticalAlign=middle;resizable=0;points=[];autosize=1;strokeColor=none;fillColor=none;" vertex="1" parent="1">
          <mxGeometry x="330" y="330" width="30" height="30" as="geometry" />
        </mxCell>
        <mxCell id="8ZcnrOEr7dViygReLH3v-29" value="1" style="text;html=1;align=center;verticalAlign=middle;resizable=0;points=[];autosize=1;strokeColor=none;fillColor=none;" vertex="1" parent="1">
          <mxGeometry x="515" y="390" width="30" height="30" as="geometry" />
        </mxCell>
        <mxCell id="8ZcnrOEr7dViygReLH3v-30" value="N" style="text;html=1;align=center;verticalAlign=middle;resizable=0;points=[];autosize=1;strokeColor=none;fillColor=none;" vertex="1" parent="1">
          <mxGeometry x="575" y="420" width="30" height="30" as="geometry" />
        </mxCell>
        <mxCell id="8ZcnrOEr7dViygReLH3v-32" value="N" style="text;html=1;align=center;verticalAlign=middle;resizable=0;points=[];autosize=1;strokeColor=none;fillColor=none;" vertex="1" parent="1">
          <mxGeometry x="390" y="390" width="30" height="30" as="geometry" />
        </mxCell>
      </root>
    </mxGraphModel>
  </diagram>
  <diagram id="rbVx_Aj5NUXh1gx7yOWc" name="1.4-exercicio-optus">
    <mxGraphModel dx="1855" dy="574" grid="1" gridSize="10" guides="1" tooltips="1" connect="1" arrows="1" fold="1" page="1" pageScale="1" pageWidth="827" pageHeight="1169" math="0" shadow="0">
      <root>
        <mxCell id="0" />
        <mxCell id="1" parent="0" />
        <mxCell id="sOXlfP286KKBGf58Z_oa-3" value="" style="edgeStyle=orthogonalEdgeStyle;rounded=0;orthogonalLoop=1;jettySize=auto;html=1;endArrow=none;endFill=0;" edge="1" parent="1" source="0srbitcsv75SaofltJwT-1" target="y5SU4J_h8RDrbXkpnAb2-2">
          <mxGeometry relative="1" as="geometry" />
        </mxCell>
        <mxCell id="0srbitcsv75SaofltJwT-1" value="Optus" style="rounded=0;whiteSpace=wrap;html=1;" vertex="1" parent="1">
          <mxGeometry x="-800" y="460" width="120" height="60" as="geometry" />
        </mxCell>
        <mxCell id="sOXlfP286KKBGf58Z_oa-11" value="" style="edgeStyle=orthogonalEdgeStyle;rounded=0;orthogonalLoop=1;jettySize=auto;html=1;endArrow=none;endFill=0;" edge="1" parent="1" source="y5SU4J_h8RDrbXkpnAb2-1" target="y5SU4J_h8RDrbXkpnAb2-3">
          <mxGeometry relative="1" as="geometry" />
        </mxCell>
        <mxCell id="y5SU4J_h8RDrbXkpnAb2-1" value="Nome" style="ellipse;whiteSpace=wrap;html=1;" vertex="1" parent="1">
          <mxGeometry x="-180" y="380" width="80" height="40" as="geometry" />
        </mxCell>
        <mxCell id="sOXlfP286KKBGf58Z_oa-4" value="" style="edgeStyle=orthogonalEdgeStyle;rounded=0;orthogonalLoop=1;jettySize=auto;html=1;endArrow=none;endFill=0;" edge="1" parent="1" source="y5SU4J_h8RDrbXkpnAb2-2" target="sOXlfP286KKBGf58Z_oa-1">
          <mxGeometry relative="1" as="geometry" />
        </mxCell>
        <mxCell id="y5SU4J_h8RDrbXkpnAb2-2" value="gerencia" style="rhombus;whiteSpace=wrap;html=1;" vertex="1" parent="1">
          <mxGeometry x="-630" y="450" width="80" height="80" as="geometry" />
        </mxCell>
        <mxCell id="sOXlfP286KKBGf58Z_oa-6" value="" style="edgeStyle=orthogonalEdgeStyle;rounded=0;orthogonalLoop=1;jettySize=auto;html=1;endArrow=none;endFill=0;" edge="1" parent="1" source="y5SU4J_h8RDrbXkpnAb2-3" target="sOXlfP286KKBGf58Z_oa-2">
          <mxGeometry relative="1" as="geometry" />
        </mxCell>
        <mxCell id="y5SU4J_h8RDrbXkpnAb2-3" value="Artistas" style="rounded=0;whiteSpace=wrap;html=1;" vertex="1" parent="1">
          <mxGeometry x="-200" y="460" width="120" height="60" as="geometry" />
        </mxCell>
        <mxCell id="sOXlfP286KKBGf58Z_oa-5" value="" style="edgeStyle=orthogonalEdgeStyle;rounded=0;orthogonalLoop=1;jettySize=auto;html=1;endArrow=none;endFill=0;" edge="1" parent="1" source="sOXlfP286KKBGf58Z_oa-1" target="sOXlfP286KKBGf58Z_oa-2">
          <mxGeometry relative="1" as="geometry" />
        </mxCell>
        <mxCell id="sOXlfP286KKBGf58Z_oa-1" value="CDs dos artistas/Álbums" style="rounded=0;whiteSpace=wrap;html=1;" vertex="1" parent="1">
          <mxGeometry x="-500" y="460" width="120" height="60" as="geometry" />
        </mxCell>
        <mxCell id="sOXlfP286KKBGf58Z_oa-2" value="Pertence" style="rhombus;whiteSpace=wrap;html=1;" vertex="1" parent="1">
          <mxGeometry x="-330" y="450" width="80" height="80" as="geometry" />
        </mxCell>
        <mxCell id="sOXlfP286KKBGf58Z_oa-7" value="N" style="text;html=1;align=center;verticalAlign=middle;resizable=0;points=[];autosize=1;strokeColor=none;fillColor=none;" vertex="1" parent="1">
          <mxGeometry x="-385" y="468" width="30" height="30" as="geometry" />
        </mxCell>
        <mxCell id="sOXlfP286KKBGf58Z_oa-8" value="1" style="text;html=1;align=center;verticalAlign=middle;resizable=0;points=[];autosize=1;strokeColor=none;fillColor=none;" vertex="1" parent="1">
          <mxGeometry x="-220" y="468" width="30" height="30" as="geometry" />
        </mxCell>
        <mxCell id="sOXlfP286KKBGf58Z_oa-9" value="1" style="text;html=1;align=center;verticalAlign=middle;resizable=0;points=[];autosize=1;strokeColor=none;fillColor=none;" vertex="1" parent="1">
          <mxGeometry x="-690" y="468" width="30" height="30" as="geometry" />
        </mxCell>
        <mxCell id="sOXlfP286KKBGf58Z_oa-10" value="N" style="text;html=1;align=center;verticalAlign=middle;resizable=0;points=[];autosize=1;strokeColor=none;fillColor=none;" vertex="1" parent="1">
          <mxGeometry x="-525" y="468" width="30" height="30" as="geometry" />
        </mxCell>
        <mxCell id="sOXlfP286KKBGf58Z_oa-15" value="" style="edgeStyle=orthogonalEdgeStyle;rounded=0;orthogonalLoop=1;jettySize=auto;html=1;endArrow=none;endFill=0;" edge="1" parent="1" source="sOXlfP286KKBGf58Z_oa-12" target="sOXlfP286KKBGf58Z_oa-1">
          <mxGeometry relative="1" as="geometry" />
        </mxCell>
        <mxCell id="sOXlfP286KKBGf58Z_oa-12" value="possui" style="rhombus;whiteSpace=wrap;html=1;" vertex="1" parent="1">
          <mxGeometry x="-480" y="330" width="80" height="80" as="geometry" />
        </mxCell>
        <mxCell id="sOXlfP286KKBGf58Z_oa-14" value="" style="edgeStyle=orthogonalEdgeStyle;rounded=0;orthogonalLoop=1;jettySize=auto;html=1;endArrow=none;endFill=0;" edge="1" parent="1" source="sOXlfP286KKBGf58Z_oa-13" target="sOXlfP286KKBGf58Z_oa-12">
          <mxGeometry relative="1" as="geometry" />
        </mxCell>
        <mxCell id="sOXlfP286KKBGf58Z_oa-13" value="Estilos" style="rounded=0;whiteSpace=wrap;html=1;" vertex="1" parent="1">
          <mxGeometry x="-500" y="220" width="120" height="60" as="geometry" />
        </mxCell>
        <mxCell id="sOXlfP286KKBGf58Z_oa-16" value="1" style="text;html=1;align=center;verticalAlign=middle;resizable=0;points=[];autosize=1;strokeColor=none;fillColor=none;" vertex="1" parent="1">
          <mxGeometry x="-445" y="438" width="30" height="30" as="geometry" />
        </mxCell>
        <mxCell id="sOXlfP286KKBGf58Z_oa-17" value="N" style="text;html=1;align=center;verticalAlign=middle;resizable=0;points=[];autosize=1;strokeColor=none;fillColor=none;" vertex="1" parent="1">
          <mxGeometry x="-445" y="278" width="30" height="30" as="geometry" />
        </mxCell>
        <mxCell id="sOXlfP286KKBGf58Z_oa-18" value="A Optus é uma empresa no ramo musical que deseja realizar o gerenciamento dos lançamentos de novos cds de seus artistas. Cada álbum lançado poderá conter mais de um estilo vinculado (ex.: Indie e Folk).&#xa;É importante que você crie também uma estratégia para que os usuários possuam acesso à plataforma.&#xa;Os usuários deverão conter nome, email, senha e o tipo de permissão (eles podem ser do tipo administrador ou comum).&#xa;&#xa;&#xa;Observações:&#xa;Os Artistas deverão possuir somente nome.&#xa;Estilos: nome.&#xa;Albuns: titulo, data de lançamento, localizacao, quantidade de minutos, se o álbum está ativo para visualização, a quem pertence (somente um artista por álbum) e quais os estilos vinculados." style="text;whiteSpace=wrap;" vertex="1" parent="1">
          <mxGeometry x="-750" y="10" width="560" height="230" as="geometry" />
        </mxCell>
        <mxCell id="sOXlfP286KKBGf58Z_oa-29" style="edgeStyle=orthogonalEdgeStyle;rounded=0;orthogonalLoop=1;jettySize=auto;html=1;endArrow=none;endFill=0;" edge="1" parent="1" source="sOXlfP286KKBGf58Z_oa-19">
          <mxGeometry relative="1" as="geometry">
            <mxPoint x="-480" y="550" as="targetPoint" />
            <Array as="points">
              <mxPoint x="-560" y="550" />
            </Array>
          </mxGeometry>
        </mxCell>
        <mxCell id="sOXlfP286KKBGf58Z_oa-19" value="Data de lançamento" style="ellipse;whiteSpace=wrap;html=1;" vertex="1" parent="1">
          <mxGeometry x="-600" y="600" width="80" height="40" as="geometry" />
        </mxCell>
        <mxCell id="sOXlfP286KKBGf58Z_oa-25" value="" style="edgeStyle=orthogonalEdgeStyle;rounded=0;orthogonalLoop=1;jettySize=auto;html=1;entryX=0.5;entryY=1;entryDx=0;entryDy=0;endArrow=none;endFill=0;" edge="1" parent="1" source="sOXlfP286KKBGf58Z_oa-20" target="sOXlfP286KKBGf58Z_oa-1">
          <mxGeometry relative="1" as="geometry">
            <Array as="points">
              <mxPoint x="-480" y="549" />
              <mxPoint x="-440" y="549" />
            </Array>
          </mxGeometry>
        </mxCell>
        <mxCell id="sOXlfP286KKBGf58Z_oa-20" value="Localização" style="ellipse;whiteSpace=wrap;html=1;" vertex="1" parent="1">
          <mxGeometry x="-520" y="600" width="80" height="40" as="geometry" />
        </mxCell>
        <mxCell id="sOXlfP286KKBGf58Z_oa-26" value="" style="edgeStyle=orthogonalEdgeStyle;rounded=0;orthogonalLoop=1;jettySize=auto;html=1;endArrow=none;endFill=0;" edge="1" parent="1" source="sOXlfP286KKBGf58Z_oa-21">
          <mxGeometry relative="1" as="geometry">
            <mxPoint x="-440" y="530" as="targetPoint" />
            <Array as="points">
              <mxPoint x="-400" y="549" />
              <mxPoint x="-440" y="549" />
            </Array>
          </mxGeometry>
        </mxCell>
        <mxCell id="sOXlfP286KKBGf58Z_oa-21" value="Quantidade de minutos" style="ellipse;whiteSpace=wrap;html=1;" vertex="1" parent="1">
          <mxGeometry x="-440" y="600" width="80" height="40" as="geometry" />
        </mxCell>
        <mxCell id="sOXlfP286KKBGf58Z_oa-22" value="Se o&amp;nbsp;álbum está ativo para visualização" style="ellipse;whiteSpace=wrap;html=1;" vertex="1" parent="1">
          <mxGeometry x="-320" y="300" width="80" height="40" as="geometry" />
        </mxCell>
        <mxCell id="sOXlfP286KKBGf58Z_oa-27" value="" style="edgeStyle=orthogonalEdgeStyle;rounded=0;orthogonalLoop=1;jettySize=auto;html=1;endArrow=none;endFill=0;" edge="1" parent="1" source="sOXlfP286KKBGf58Z_oa-23">
          <mxGeometry relative="1" as="geometry">
            <mxPoint x="-400" y="549" as="targetPoint" />
            <Array as="points">
              <mxPoint x="-320" y="550" />
              <mxPoint x="-399" y="550" />
            </Array>
          </mxGeometry>
        </mxCell>
        <mxCell id="sOXlfP286KKBGf58Z_oa-23" value="A quem pertence" style="ellipse;whiteSpace=wrap;html=1;" vertex="1" parent="1">
          <mxGeometry x="-360" y="600" width="80" height="40" as="geometry" />
        </mxCell>
      </root>
    </mxGraphModel>
  </diagram>
  <diagram id="AsGj-UvPsZRwxKUi1zK-" name="1.5-exercicio-ecommerce">
    <mxGraphModel dx="1028" dy="574" grid="1" gridSize="10" guides="1" tooltips="1" connect="1" arrows="1" fold="1" page="1" pageScale="1" pageWidth="827" pageHeight="1169" math="0" shadow="0">
      <root>
        <mxCell id="0" />
        <mxCell id="1" parent="0" />
        <mxCell id="TZ9iRCG0tN3ri92aX7-4-1" value="SenaiShop" style="rounded=0;whiteSpace=wrap;html=1;" vertex="1" parent="1">
          <mxGeometry x="350" y="270" width="120" height="60" as="geometry" />
        </mxCell>
        <mxCell id="TZ9iRCG0tN3ri92aX7-4-2" value="Possui" style="rhombus;whiteSpace=wrap;html=1;" vertex="1" parent="1">
          <mxGeometry x="370" y="370" width="80" height="80" as="geometry" />
        </mxCell>
        <mxCell id="wdfOjm0qx6yypDMN57us-1" value="Nome" style="ellipse;whiteSpace=wrap;html=1;" vertex="1" parent="1">
          <mxGeometry x="10" y="360" width="80" height="40" as="geometry" />
        </mxCell>
        <mxCell id="wdfOjm0qx6yypDMN57us-2" value="Categorias" style="rounded=0;whiteSpace=wrap;html=1;" vertex="1" parent="1">
          <mxGeometry x="354" y="500" width="120" height="60" as="geometry" />
        </mxCell>
        <mxCell id="wdfOjm0qx6yypDMN57us-4" value="Possui" style="rhombus;whiteSpace=wrap;html=1;" vertex="1" parent="1">
          <mxGeometry x="370" y="610" width="80" height="80" as="geometry" />
        </mxCell>
        <mxCell id="wdfOjm0qx6yypDMN57us-5" value="Subcategorias" style="rounded=0;whiteSpace=wrap;html=1;" vertex="1" parent="1">
          <mxGeometry x="354" y="740" width="120" height="60" as="geometry" />
        </mxCell>
        <mxCell id="wdfOjm0qx6yypDMN57us-6" value="Produto" style="rounded=0;whiteSpace=wrap;html=1;" vertex="1" parent="1">
          <mxGeometry x="650" y="740" width="120" height="60" as="geometry" />
        </mxCell>
        <mxCell id="wdfOjm0qx6yypDMN57us-7" value="Possui" style="rhombus;whiteSpace=wrap;html=1;" vertex="1" parent="1">
          <mxGeometry x="520" y="730" width="80" height="80" as="geometry" />
        </mxCell>
        <mxCell id="wdfOjm0qx6yypDMN57us-8" value="Efetua pedidio" style="rhombus;whiteSpace=wrap;html=1;" vertex="1" parent="1">
          <mxGeometry x="90" y="600" width="80" height="80" as="geometry" />
        </mxCell>
        <mxCell id="wdfOjm0qx6yypDMN57us-9" value="Cliente" style="rounded=0;whiteSpace=wrap;html=1;" vertex="1" parent="1">
          <mxGeometry x="70" y="510" width="120" height="60" as="geometry" />
        </mxCell>
        <mxCell id="wdfOjm0qx6yypDMN57us-10" value="Pedido" style="rounded=0;whiteSpace=wrap;html=1;" vertex="1" parent="1">
          <mxGeometry x="70" y="720" width="120" height="60" as="geometry" />
        </mxCell>
      </root>
    </mxGraphModel>
  </diagram>
  <diagram id="i6PctijexpBkiajTzzVx" name="1.6-exercicio-micromanu">
    <mxGraphModel dx="1028" dy="574" grid="1" gridSize="10" guides="1" tooltips="1" connect="1" arrows="1" fold="1" page="1" pageScale="1" pageWidth="827" pageHeight="1169" math="0" shadow="0">
      <root>
        <mxCell id="0" />
        <mxCell id="1" parent="0" />
      </root>
    </mxGraphModel>
  </diagram>
</mxfile>
